<svg width="73" height="96" viewBox="0 0 73 96" fill="none" xmlns="http://www.w3.org/2000/svg">
<ellipse cx="30.8446" cy="30.8446" rx="30.8446" ry="30.8446" transform="matrix(-0.884696 0.466167 0.0386355 -0.999253 54.5762 63.7075)" fill="#6580E1" stroke="black"/>
<path d="M55.7678 32.8858C56.0728 24.9979 53.7136 18.5138 48.618 15.3031L63.8743 24.9158C68.97 28.1265 71.3292 34.6106 71.0242 42.4985L55.7678 32.8858Z" fill="#93AAFC" stroke="black"/>
<path d="M55.7678 32.8859C55.1096 49.9082 42.3588 70.145 27.288 78.0862L42.5443 87.6989C57.6151 79.7578 70.366 59.5209 71.0241 42.4986L55.7678 32.8859Z" fill="#BDCBFD" stroke="black"/>
<path d="M8.34166 79.226C13.4373 82.4367 20.3046 81.766 27.2882 78.0861L42.5446 87.6989C35.561 91.3787 28.6937 92.0494 23.598 88.8387L8.34166 79.226Z" fill="#BDCBFD" stroke="black"/>
</svg>
