<svg width="124" height="117" viewBox="0 0 124 117" fill="none" xmlns="http://www.w3.org/2000/svg">
<path d="M35.9332 44.3989C38.9177 37.2661 47.5544 30.6881 55.2239 29.7064L86.9649 25.6434C94.6343 24.6617 98.4321 29.6481 95.4476 36.7809L83.0957 66.3009C80.1112 73.4337 71.4745 80.0117 63.805 80.9934L32.064 85.0564C24.3946 86.0381 20.5968 81.0516 23.5813 73.9189L35.9332 44.3989Z" fill="#BDCBFD"/>
<rect width="32" height="12" transform="matrix(0.991907 -0.126966 0.60591 0.795533 32.064 85.0562)" fill="#93AAFC"/>
<rect width="32" height="12" transform="matrix(0.385997 -0.9225 0.60591 0.795533 83.0957 66.3008)" fill="#6580E1"/>
<path d="M23.8274 82.5303C25.4837 84.705 28.5101 85.511 32.064 85.0561L39.3349 94.6025C35.781 95.0574 32.7547 94.2514 31.0983 92.0767L23.8274 82.5303Z" fill="#93AAFC"/>
<path d="M63.8051 80.9932C71.4745 80.0115 80.1112 73.4334 83.0957 66.3006L90.3666 75.847C87.3821 82.9798 78.7454 89.5579 71.076 90.5396L63.8051 80.9932Z" fill="#6580E1"/>
<path d="M95.2014 28.169C96.8578 30.3437 96.8305 33.4754 95.4475 36.7806L102.718 46.3271C104.101 43.0218 104.129 39.8901 102.472 37.7154L95.2014 28.169Z" fill="#6580E1"/>
</svg>
