<svg width="46" height="46" viewBox="0 0 46 46" fill="none" xmlns="http://www.w3.org/2000/svg">
<circle cx="23" cy="23" r="23" fill="#DBF0FF"/>
<mask id="mask0_60_163" style="mask-type:alpha" maskUnits="userSpaceOnUse" x="11" y="11" width="24" height="24">
<rect x="11" y="11" width="24" height="24" fill="#D9D9D9"/>
</mask>
<g mask="url(#mask0_60_163)">
<path d="M19 31C18.45 31 17.9792 30.8042 17.5875 30.4125C17.1958 30.0208 17 29.55 17 29V26H20V23.75C19.4167 23.7167 18.8625 23.5875 18.3375 23.3625C17.8125 23.1375 17.3333 22.8 16.9 22.35V21.25H15.75L12.5 18C13.1 17.2333 13.8417 16.6917 14.725 16.375C15.6083 16.0583 16.5 15.9 17.4 15.9C17.85 15.9 18.2875 15.9333 18.7125 16C19.1375 16.0667 19.5667 16.1917 20 16.375V15H32V28C32 28.8333 31.7083 29.5417 31.125 30.125C30.5417 30.7083 29.8333 31 29 31H19ZM22 26H28V28C28 28.2833 28.0958 28.5208 28.2875 28.7125C28.4792 28.9042 28.7167 29 29 29C29.2833 29 29.5208 28.9042 29.7125 28.7125C29.9042 28.5208 30 28.2833 30 28V17H22V17.6L28 23.6V25H26.6L23.75 22.15L23.55 22.35C23.3167 22.5833 23.0708 22.7917 22.8125 22.975C22.5542 23.1583 22.2833 23.3 22 23.4V26ZM16.6 19.25H18.9V21.4C19.1 21.5333 19.3083 21.625 19.525 21.675C19.7417 21.725 19.9667 21.75 20.2 21.75C20.5833 21.75 20.9292 21.6917 21.2375 21.575C21.5458 21.4583 21.85 21.25 22.15 20.95L22.35 20.75L20.95 19.35C20.4667 18.8667 19.925 18.5042 19.325 18.2625C18.725 18.0208 18.0833 17.9 17.4 17.9C17.0667 17.9 16.75 17.925 16.45 17.975C16.15 18.025 15.85 18.1 15.55 18.2L16.6 19.25ZM26 28H19V29H26.15C26.1 28.85 26.0625 28.6917 26.0375 28.525C26.0125 28.3583 26 28.1833 26 28Z" fill="#2B43FF"/>
</g>
</svg>
