<svg width="201" height="58" viewBox="0 0 201 58" fill="none" xmlns="http://www.w3.org/2000/svg">
<path d="M29 56.8075C44.3031 56.8075 56.7065 44.379 56.7065 29.0505C56.7065 13.7219 44.3031 1.29346 29 1.29346C13.6969 1.29346 1.29346 13.7219 1.29346 29.0505C1.29346 44.379 13.6969 56.8075 29 56.8075Z" fill="#F7F9F8" stroke="#049712" stroke-width="1.41308"/>
<g filter="url(#filter0_d_203_63)">
<path d="M30.8169 26.6785C29.3533 32.0028 28.9496 38.2355 28.9496 38.2355C28.9496 38.2355 31.3703 32.2699 33.7944 29.757C36.2186 27.2442 41.7683 25.5682 41.7683 25.5682C41.7683 25.5682 38.8362 25.3751 36.9739 25.5682C35.7202 25.6983 33.7944 26.1234 33.7944 26.1234L35.3085 22.8935C35.3085 22.8935 35.8516 21.6977 36.5197 20.7739C37.4385 19.5033 38.6898 18.2505 38.6898 18.2505C38.6898 18.2505 32.2804 21.3542 30.8169 26.6785Z" fill="#2A70C5"/>
</g>
<g filter="url(#filter1_d_203_63)">
<ellipse cx="38.1956" cy="22.5611" rx="1.55699" ry="2.07598" transform="rotate(36.2655 38.1956 22.5611)" fill="#286FC7"/>
</g>
<g filter="url(#filter2_d_203_63)">
<path d="M34.1476 39.3963C34.1476 39.3963 33.4947 39.3711 33.0878 39.4468C32.7814 39.5037 32.5831 39.6486 32.5831 39.6486C32.5831 39.6486 33.4454 39.6143 33.9962 39.6486C34.372 39.6721 34.9551 39.7496 34.9551 39.7496L36.5196 40.1028L37.9831 40.6075L39.1943 41.1122L40.3551 41.6169L41.6672 42.3234V38.0842V34.5514L40.2541 33.7944V37.0243V38.6898V40.9103L39.1943 40.4561L37.9831 40.0524C37.9831 40.0524 37.1006 39.7665 36.5196 39.6486C35.9158 39.5262 34.9551 39.4468 34.9551 39.4468L34.1476 39.3963Z" fill="#DA8218"/>
</g>
<g filter="url(#filter3_d_203_63)">
<path d="M30.8168 39.2448C30.4706 39.4791 30.0598 40.0018 30.0598 40.0018L31.7252 39.2448L32.7346 39.0429L33.5421 38.942C33.5421 38.942 33.9904 38.8639 34.2486 38.841C34.5068 38.8182 34.7518 38.841 35.1065 38.841H35.9645H36.671L37.6299 39.0429L38.2355 39.2448L39.3963 39.7494V38.4373V36.7719V35.0055V33.5924V31.7251L38.2355 30.8672V32.1793V34.198V36.2672V38.2859H38.0336H37.3776C37.3776 38.2859 36.7427 38.1849 36.3682 38.1849H35.3589C35.3589 38.1849 34.7753 38.2051 34.4 38.2354C34.0655 38.2624 33.8774 38.2996 33.5421 38.3363C33.1483 38.3795 32.9556 38.3753 32.5327 38.4877C32.2496 38.563 31.9978 38.6327 31.7252 38.7401C31.364 38.8824 31.1383 39.0272 30.8168 39.2448Z" fill="#DA8218"/>
</g>
<g filter="url(#filter4_d_203_63)">
<path d="M30.1103 36.974C29.8105 38.0508 29.6561 39.8001 29.6561 39.8001C29.6561 39.8001 30.6693 38.9017 31.4225 38.488C32.0032 38.169 32.3534 38.0256 32.987 37.8319C33.5267 37.667 33.846 37.5859 34.4001 37.4786C34.9695 37.3684 35.2855 37.3232 35.8636 37.2768C36.3744 37.2358 37.1758 37.2768 37.1758 37.2768V29.1011H35.8636C35.8636 29.1011 34.9346 29.7655 34.4001 30.2618C33.7967 30.822 32.987 31.6749 32.987 31.6749C32.987 31.6749 31.949 32.9745 31.4225 33.8955C30.7739 35.03 30.4609 35.715 30.1103 36.974Z" fill="#DA8218"/>
</g>
<g filter="url(#filter5_d_203_63)">
<path d="M27.0823 26.6785C28.5458 32.0028 28.9496 38.2355 28.9496 38.2355C28.9496 38.2355 26.5289 32.2699 24.1047 29.757C21.6806 27.2442 16.1309 25.5682 16.1309 25.5682C16.1309 25.5682 19.063 25.3751 20.9253 25.5682C22.179 25.6983 24.1047 26.1234 24.1047 26.1234L22.5907 22.8935C22.5907 22.8935 22.0476 21.6977 21.3795 20.7739C20.4606 19.5033 19.2094 18.2505 19.2094 18.2505C19.2094 18.2505 25.6187 21.3542 27.0823 26.6785Z" fill="#2A70C5"/>
</g>
<g filter="url(#filter6_d_203_63)">
<ellipse cx="1.55699" cy="2.07598" rx="1.55699" ry="2.07598" transform="matrix(-0.806285 0.591528 0.591528 0.806285 19.731 19.9663)" fill="#286FC7"/>
</g>
<g filter="url(#filter7_d_203_63)">
<path d="M23.7514 39.3963C23.7514 39.3963 24.4043 39.3711 24.8113 39.4468C25.1176 39.5037 25.3159 39.6486 25.3159 39.6486C25.3159 39.6486 24.4536 39.6143 23.9028 39.6486C23.527 39.6721 22.944 39.7496 22.944 39.7496L21.3795 40.1028L19.9159 40.6075L18.7047 41.1122L17.544 41.6169L16.2318 42.3234V38.0842V34.5514L17.6449 33.7944V37.0243V38.6898V40.9103L18.7047 40.4561L19.9159 40.0524C19.9159 40.0524 20.7984 39.7665 21.3795 39.6486C21.9832 39.5262 22.944 39.4468 22.944 39.4468L23.7514 39.3963Z" fill="#DA8218"/>
</g>
<g filter="url(#filter8_d_203_63)">
<path d="M27.0822 39.2448C27.4285 39.4791 27.8392 40.0018 27.8392 40.0018L26.1738 39.2448L25.1645 39.0429L24.357 38.942C24.357 38.942 23.9087 38.8639 23.6504 38.841C23.3922 38.8182 23.1473 38.841 22.7925 38.841H21.9346H21.228L20.2691 39.0429L19.6635 39.2448L18.5028 39.7494V38.4373V36.7719V35.0055V33.5924V31.7251L19.6635 30.8672V32.1793V34.198V36.2672V38.2859H19.8654H20.5215C20.5215 38.2859 21.1564 38.1849 21.5308 38.1849H22.5402C22.5402 38.1849 23.1237 38.2051 23.499 38.2354C23.8336 38.2624 24.0216 38.2996 24.357 38.3363C24.7508 38.3795 24.9434 38.3753 25.3663 38.4877C25.6495 38.563 25.9012 38.6327 26.1738 38.7401C26.535 38.8824 26.7607 39.0272 27.0822 39.2448Z" fill="#DA8218"/>
</g>
<g filter="url(#filter9_d_203_63)">
<path d="M27.7888 36.974C28.0887 38.0508 28.243 39.8001 28.243 39.8001C28.243 39.8001 27.2299 38.9017 26.4767 38.488C25.896 38.169 25.5458 38.0256 24.9122 37.8319C24.3725 37.667 24.0532 37.5859 23.4991 37.4786C22.9297 37.3684 22.6137 37.3232 22.0356 37.2768C21.5248 37.2358 20.7234 37.2768 20.7234 37.2768V29.1011H22.0356C22.0356 29.1011 22.9645 29.7655 23.4991 30.2618C24.1024 30.822 24.9122 31.6749 24.9122 31.6749C24.9122 31.6749 25.9502 32.9745 26.4767 33.8955C27.1253 35.03 27.4382 35.715 27.7888 36.974Z" fill="#DA8218"/>
</g>
<path d="M49.5469 36.1664C50.2806 34.241 50.672 33.116 50.9095 31.0692C51.0981 29.4443 50.9674 28.5152 50.9095 26.8805C50.9095 26.8805 50.8019 25.5897 50.8019 24.7608C50.8019 23.3477 50.6067 22.6412 50.6067 22.6412C50.6067 22.6412 50.879 23.4015 51.0542 24.2057C51.1902 24.8294 51.2911 25.1547 51.4075 25.7702C51.6142 26.8631 51.68 27.749 51.7608 28.5963C51.8378 29.4046 51.83 29.7031 51.8684 30.5141C51.9047 31.2819 51.9047 31.7145 51.8684 32.4823L51.8651 32.5515C51.8288 33.32 51.8073 33.7756 51.6665 34.5515C51.5393 35.2523 51.3907 35.6283 51.2123 36.3178C50.9776 37.2249 50.9132 37.7539 50.6067 38.6393C50.2087 39.7892 49.2946 41.4655 49.2946 41.4655L47.831 43.5851L46.3675 45.4524L44.046 47.572L41.5731 49.3889L39.302 50.6001L36.7215 51.6599C36.7215 51.6599 35.1215 52.2931 34.1039 52.5683C33.5591 52.7156 33.2475 52.778 32.6908 52.8711C31.4055 53.086 30.7068 53.1549 29.4038 53.1739C28.9899 53.1799 28.6538 53.1532 28.243 53.1739C27.8448 53.1939 27.2841 53.1739 27.2841 53.1739C27.2841 53.1739 26.5007 53.1087 26.0225 53.073C25.6294 53.0436 25.2561 52.9848 24.8617 52.9216C24.275 52.8276 23.5058 52.7197 23.5058 52.7197L21.0833 52.0636L19.1151 51.3066L17.1469 50.2973C17.1469 50.2973 16.2616 49.8439 15.7338 49.4898C15.0359 49.0217 14.0684 48.1272 14.0684 48.1272L12.4534 46.6132L11.3936 45.4019L10.1824 44.0393L9.27399 42.7776L8.51699 41.5664L7.91138 40.3552L7.45717 39.1945L6.75063 37.2767C6.75063 37.2767 6.46384 36.5813 6.34022 36.015C6.25522 35.6256 6.0577 34.7935 5.99362 34.4001C5.87111 33.648 5.85422 33.6846 5.78508 32.9365C5.69932 32.0087 5.73461 31.4909 5.73461 30.5646C5.73461 29.6974 5.86505 29.1007 5.99362 28.2431C6.06874 27.742 6.29642 26.5776 6.29642 26.5776L6.89536 24.3066L7.45717 22.4898L8.06278 21.0262L8.71885 19.4618L9.17306 18.6543C9.17306 18.6543 9.41187 18.0494 9.62726 17.6954C9.84653 17.3351 10.2833 16.8375 10.2833 16.8375C10.2833 16.8375 10.6613 16.2669 10.9394 15.929C11.0725 15.7673 11.1778 15.7005 11.2927 15.5253C11.3893 15.3779 11.4946 15.1216 11.4946 15.1216C11.4946 15.1216 11.7044 14.829 11.6964 14.6169C11.6891 14.4229 11.4946 14.1627 11.4946 14.1627C11.4946 14.1627 11.4245 14.0654 11.3936 14.0113C11.3521 13.9387 11.2927 13.8599 11.2927 13.8599L11.1413 13.7085L10.9394 13.5066C10.9394 13.5066 10.8591 13.4071 10.788 13.3048C10.716 13.2011 10.6198 13.0356 10.5861 13.0019C10.5525 12.9683 10.4852 12.8606 10.4852 12.6991V12.4468C10.502 12.3122 10.5141 12.0699 10.5861 11.8412C10.6444 11.6561 10.7375 11.4879 10.788 11.387C10.8385 11.2861 10.9319 11.129 11.0404 10.9833C11.2301 10.7283 11.4946 10.3272 11.4946 10.3272L11.6964 10.0748C11.8142 9.94027 12.0598 9.65092 12.1002 9.57017C12.1405 9.48942 12.2857 9.34543 12.3963 9.2169C12.4678 9.13376 12.4728 9.1022 12.5477 9.01503C12.6299 8.91931 12.7562 8.7627 12.7562 8.7627C12.7562 8.7627 12.827 9.04823 12.9076 9.2169C12.9996 9.40922 13.095 9.49189 13.2104 9.67111C13.3111 9.82741 13.3835 9.90666 13.4628 10.0748C13.5425 10.244 13.5576 10.3508 13.6142 10.5291C13.6764 10.7252 13.7324 10.8306 13.7656 11.0337C13.8068 11.2866 13.7656 11.6898 13.7656 11.6898C13.7656 11.6898 13.7417 12.0406 13.658 12.2449C13.5777 12.4409 13.4056 12.7496 13.4056 12.7496C13.4056 12.7496 13.2326 13.0024 13.1095 13.1029C12.8893 13.2826 12.6048 13.5066 12.6048 13.5066V13.1029C12.6048 13.1029 12.64 12.6107 12.6991 12.2954C12.7582 11.9801 12.9076 11.4879 12.9076 11.4879C12.9076 11.4879 12.7704 11.7916 12.6991 11.9926C12.6303 12.1865 12.6386 12.2301 12.5477 12.4973C12.471 12.7227 12.4575 12.7914 12.3963 13.0524C12.3603 13.2059 12.357 13.3058 12.2954 13.4562C12.2047 13.6774 12.0106 13.7676 11.9488 13.9608C11.8527 14.2612 11.9488 14.7683 11.9488 14.7683C12.2838 14.5121 12.465 14.318 12.8 14.0618C12.8 14.0618 13.1019 13.7066 13.3618 13.5066C13.6382 13.294 14.1189 12.901 14.1189 12.901C14.1189 12.901 14.4217 12.5477 14.5731 12.4468C14.7245 12.3459 14.8746 12.1671 15.1282 11.9926C15.3696 11.8265 15.7843 11.5889 15.7843 11.5889L16.6927 11.2356C16.6927 11.2356 17.1562 10.9369 17.443 10.7309C17.7073 10.5412 18.1058 10.2262 18.1058 10.2262L18.3581 9.87298C18.3581 9.87298 18.0229 9.95467 17.803 10.0244C17.5888 10.0923 17.4597 10.1513 17.2478 10.2262C16.9818 10.3203 16.5918 10.5291 16.5918 10.5291L16.1375 10.8823C16.1375 10.8823 16.1003 10.6619 16.1375 10.5291C16.2052 10.2875 16.4841 9.92344 16.4841 9.92344L17.046 9.41877L17.7458 9.11597L18.7114 8.86363H19.3675L20.1749 8.96456H20.7301L20.4273 9.2169C20.4273 9.2169 20.2619 9.32729 20.1749 9.41877C20.0468 9.55355 19.9712 9.66955 19.8655 9.82251C19.7525 9.98594 19.7024 10.0743 19.6131 10.2262C19.4493 10.5049 19.4071 10.6216 19.2161 10.8823C19.1158 11.0191 19.0623 11.0976 18.9637 11.2356C18.8652 11.3736 18.8313 11.469 18.7114 11.5889C18.5915 11.7087 18.3581 11.8412 18.3581 11.8412C18.3581 11.8412 18.2691 11.9017 18.1496 11.9421C18.0375 11.98 17.803 12.0431 17.803 12.0431C17.803 12.0431 17.4785 12.0935 17.2478 12.0935C17.0171 12.0935 16.6927 12.0431 16.6927 12.0431H16.1375H15.7843L15.2796 12.4468L14.5731 13.1029L13.7656 13.7085C13.7656 13.7085 13.4657 14.1238 13.2104 14.3646C13.047 14.5187 12.7562 14.7683 12.7562 14.7683L12.2011 15.2225C12.2011 15.2225 12.0379 15.3998 11.9488 15.5253C11.6667 15.9221 11.4946 16.6861 11.4946 16.6861C11.4946 16.6861 11.9313 16.4139 12.2011 16.2823C12.5263 16.1238 12.6842 16.0893 13.0086 15.929C13.3729 15.7491 13.5995 15.6976 13.9675 15.5253C14.2069 15.4132 14.2794 15.2903 14.5159 15.172C14.713 15.0735 14.8734 15.0526 15.0777 14.9702C15.3439 14.8629 15.7843 14.7683 15.7843 14.7683H15.2796C15.0037 14.7683 14.8845 14.7796 14.6235 14.8692C14.4733 14.9209 14.3515 14.9425 14.2131 15.0206C14.0364 15.1204 13.9616 15.1699 13.7656 15.2225C13.5562 15.2787 13.2104 15.2225 13.2104 15.2225C13.2104 15.2225 13.3106 14.8934 13.4123 14.7178C13.5988 14.3961 13.6786 14.2455 13.9675 14.0113C14.1866 13.8335 14.3802 13.7381 14.6235 13.658C15.0054 13.5323 14.9847 13.5568 15.3739 13.4562C15.5691 13.4057 15.9328 13.4057 16.1309 13.4057H16.7365C17.0715 13.4057 17.7799 13.4286 18.1058 13.5066C18.3802 13.5723 18.7618 13.8094 18.7618 13.8094C18.7618 13.8094 18.5074 13.8829 18.3581 13.9608C18.1098 14.0905 18.0111 14.2275 17.803 14.415C17.5752 14.6202 17.4646 14.7534 17.2478 14.9702C17.031 15.187 16.8887 15.2896 16.6927 15.5253C16.4375 15.8321 16.4116 16.0932 16.1375 16.3833C15.9452 16.5868 15.5824 16.8375 15.5824 16.8375C15.5824 16.8375 14.9788 17.069 14.5731 17.0898C13.9429 17.1221 13.6337 16.6002 13.0086 16.6861C12.432 16.7653 12.0864 17.0839 11.6964 17.3926C10.798 18.1038 10.5307 18.418 9.8796 19.3608C8.83221 20.8775 8.54922 22.0554 8.06278 23.9029C7.45717 26.2029 7.38729 27.1078 7.4067 29.1515C7.42025 30.5771 7.46395 31.3761 7.65904 32.7851C7.77993 33.6582 7.84317 34.1521 8.06278 35.0057C8.76125 37.7206 11.3936 41.3646 11.3936 41.3646C11.3936 41.3646 14.1942 45.1421 16.5918 46.916C18.0346 47.9835 20.6796 49.187 20.6796 49.187C20.6796 49.187 23.3069 50.2356 25.2721 50.6001C26.7631 50.8766 27.8564 51.0291 29.5114 50.9029C30.7717 50.8068 32.6908 50.2973 32.6908 50.2973L35.7693 49.187C35.7693 49.187 39.0665 47.9421 40.3114 47.0674C41.5562 46.1926 44.0157 44.3018 44.2983 43.9384C44.5809 43.575 46.6703 41.3982 47.5282 40.3047C48.3861 39.2113 48.9066 37.8467 49.5469 36.1664Z" fill="#3AA51D"/>
<path d="M67.088 33.2583L69.664 25.8023L68.656 25.7063V24.4103H72.32L75.584 33.6423H75.6L76.512 33.6903V35.0503H72.384V33.7543L72.992 33.7063C73.1733 33.685 73.296 33.6423 73.36 33.5783C73.424 33.5143 73.4293 33.397 73.376 33.2263L73.04 32.2343H69.296L68.816 33.6423L69.776 33.6903V35.0503H66.08V33.7543L66.608 33.7063C66.832 33.685 66.992 33.5356 67.088 33.2583ZM71.168 26.2023L69.68 30.7623H72.656L71.216 26.2023H71.168ZM77.2657 35.0503V33.7543L77.7937 33.7063C78.1031 33.6743 78.2577 33.525 78.2577 33.2583V25.8183L77.3457 25.7703V24.4103H81.7137C82.9511 24.4103 83.9004 24.6396 84.5618 25.0983C85.2231 25.557 85.5538 26.309 85.5538 27.3543C85.5538 28.0796 85.3617 28.677 84.9777 29.1463C84.6044 29.6156 84.1564 29.957 83.6337 30.1703C84.0178 30.309 84.3218 30.6343 84.5458 31.1463L85.6978 33.6583L86.6098 33.6903V35.0503H82.6578V33.7543L83.1218 33.7063C83.3671 33.6743 83.4898 33.5783 83.4898 33.4183C83.4898 33.3543 83.4684 33.2796 83.4258 33.1943L82.6737 31.5943C82.5564 31.3276 82.4231 31.141 82.2738 31.0343C82.1351 30.917 81.9324 30.8583 81.6658 30.8583H80.2097V33.6423L81.2498 33.6903V35.0503H77.2657ZM80.2097 29.3383H81.6017C82.9138 29.3383 83.5698 28.7516 83.5698 27.5783C83.5698 26.9063 83.3938 26.469 83.0417 26.2663C82.7004 26.0636 82.1458 25.9623 81.3777 25.9623H80.2097V29.3383ZM93.7805 33.2583V25.9943H92.5325C92.2872 25.9943 92.1645 26.1596 92.1645 26.4903V27.2423L90.5325 27.1303V24.4103H98.9005V27.1303L97.2685 27.2423V26.4903C97.2685 26.309 97.2418 26.181 97.1885 26.1063C97.1352 26.0316 97.0072 25.9943 96.8045 25.9943H95.7165V33.6423L96.9805 33.6903V35.0503H92.4685V33.7543L93.3165 33.7063C93.6258 33.6743 93.7805 33.525 93.7805 33.2583ZM102.512 26.2823V31.5943C102.512 32.341 102.688 32.869 103.04 33.1783C103.403 33.477 103.915 33.6263 104.576 33.6263C105.248 33.6263 105.766 33.461 106.128 33.1303C106.502 32.7996 106.688 32.3143 106.688 31.6743V25.8183L105.76 25.7703V24.4103H109.552V25.7063L109.024 25.7543C108.715 25.7863 108.56 25.9463 108.56 26.2343V31.9463C108.56 32.981 108.198 33.7916 107.472 34.3783C106.747 34.965 105.744 35.2583 104.464 35.2583C103.184 35.2583 102.214 34.9756 101.552 34.4103C100.902 33.8343 100.576 32.9276 100.576 31.6903V25.8183L99.6482 25.7703V24.4103H103.52V25.7063L102.992 25.7543C102.822 25.7756 102.699 25.8236 102.624 25.8983C102.55 25.9623 102.512 26.0903 102.512 26.2823ZM113.491 33.2583V25.9943H112.243C111.998 25.9943 111.875 26.1596 111.875 26.4903V27.2423L110.243 27.1303V24.4103H118.611V27.1303L116.979 27.2423V26.4903C116.979 26.309 116.952 26.181 116.899 26.1063C116.846 26.0316 116.718 25.9943 116.515 25.9943H115.427V33.6423L116.691 33.6903V35.0503H112.179V33.7543L113.027 33.7063C113.336 33.6743 113.491 33.525 113.491 33.2583ZM124.042 24.2183C125.312 24.2183 126.373 24.6663 127.226 25.5623C128.08 26.4583 128.506 27.829 128.506 29.6743C128.506 31.509 128.08 32.901 127.226 33.8503C126.384 34.789 125.237 35.2583 123.786 35.2583C122.346 35.2583 121.216 34.789 120.394 33.8503C119.573 32.9116 119.162 31.5463 119.162 29.7543C119.162 28.773 119.306 27.9143 119.594 27.1783C119.882 26.4316 120.261 25.8556 120.73 25.4503C121.68 24.629 122.784 24.2183 124.042 24.2183ZM121.162 29.6743C121.162 32.3196 122.08 33.6423 123.914 33.6423C124.896 33.6423 125.584 33.237 125.978 32.4263C126.341 31.7116 126.522 30.837 126.522 29.8023C126.522 28.8743 126.362 28.021 126.042 27.2423C125.861 26.8156 125.584 26.4796 125.21 26.2343C124.848 25.989 124.373 25.8663 123.786 25.8663C123.2 25.8663 122.693 26.0583 122.266 26.4423C121.85 26.8263 121.562 27.2903 121.402 27.8343C121.242 28.3783 121.162 28.9916 121.162 29.6743ZM129.819 35.0503V33.7543L130.347 33.7063C130.657 33.6743 130.811 33.525 130.811 33.2583V25.8183L129.899 25.7703V24.4103H134.267C135.505 24.4103 136.454 24.6396 137.115 25.0983C137.777 25.557 138.107 26.309 138.107 27.3543C138.107 28.0796 137.915 28.677 137.531 29.1463C137.158 29.6156 136.71 29.957 136.187 30.1703C136.571 30.309 136.875 30.6343 137.099 31.1463L138.251 33.6583L139.163 33.6903V35.0503H135.211V33.7543L135.675 33.7063C135.921 33.6743 136.043 33.5783 136.043 33.4183C136.043 33.3543 136.022 33.2796 135.979 33.1943L135.227 31.5943C135.11 31.3276 134.977 31.141 134.827 31.0343C134.689 30.917 134.486 30.8583 134.219 30.8583H132.763V33.6423L133.803 33.6903V35.0503H129.819ZM132.763 29.3383H134.155C135.467 29.3383 136.123 28.7516 136.123 27.5783C136.123 26.9063 135.947 26.469 135.595 26.2663C135.254 26.0636 134.699 25.9623 133.931 25.9623H132.763V29.3383ZM139.979 27.0823L140.907 23.3063C141.558 23.381 142.048 23.5036 142.379 23.6743C142.582 23.781 142.683 23.9463 142.683 24.1703C142.683 24.3943 142.624 24.6076 142.507 24.8103L140.987 27.4503L139.979 27.0823ZM146.577 33.6103C147.857 33.6103 148.497 33.0983 148.497 32.0743C148.497 31.541 148.215 31.1463 147.649 30.8903C147.351 30.741 146.961 30.6023 146.481 30.4743C146.012 30.3463 145.617 30.2183 145.297 30.0903C144.988 29.9516 144.673 29.765 144.353 29.5303C143.724 29.061 143.409 28.341 143.409 27.3703C143.409 26.389 143.745 25.621 144.417 25.0663C145.1 24.501 145.985 24.2183 147.073 24.2183C148.172 24.2183 149.191 24.437 150.129 24.8743V27.2743L148.497 27.3863V26.4583C148.497 26.2983 148.476 26.181 148.433 26.1063C148.316 25.9036 147.937 25.8023 147.297 25.8023C146.668 25.8023 146.199 25.9143 145.889 26.1383C145.591 26.3623 145.441 26.709 145.441 27.1783C145.441 27.5196 145.569 27.8183 145.825 28.0743C145.996 28.245 146.247 28.389 146.577 28.5063C146.919 28.613 147.276 28.725 147.649 28.8423C148.033 28.9596 148.369 29.0876 148.657 29.2263C148.956 29.365 149.265 29.557 149.585 29.8023C150.236 30.2823 150.561 31.0236 150.561 32.0263C150.561 33.029 150.199 33.8183 149.473 34.3943C148.759 34.9703 147.809 35.2583 146.625 35.2583C145.452 35.2583 144.396 35.0396 143.457 34.6023V32.0743L145.089 31.9623V32.9383C145.089 33.0983 145.111 33.2156 145.153 33.2903C145.196 33.365 145.324 33.4396 145.537 33.5143C145.761 33.5783 146.108 33.6103 146.577 33.6103ZM155.116 35.0503V33.7543L155.644 33.7063C155.953 33.6743 156.108 33.525 156.108 33.2583V25.8183L155.196 25.7703V24.4103H159.772C160.966 24.4103 161.894 24.693 162.556 25.2583C163.228 25.813 163.564 26.6503 163.564 27.7703C163.564 28.8903 163.185 29.765 162.428 30.3943C161.67 31.013 160.668 31.3223 159.42 31.3223H158.06V33.6423L159.596 33.6903V35.0503H155.116ZM158.06 29.7703H159.212C160.769 29.7703 161.548 29.1356 161.548 27.8663C161.548 27.0983 161.345 26.5916 160.94 26.3463C160.545 26.0903 159.91 25.9623 159.036 25.9623H158.06V29.7703ZM169.721 24.2183C170.991 24.2183 172.052 24.6663 172.905 25.5623C173.759 26.4583 174.185 27.829 174.185 29.6743C174.185 31.509 173.759 32.901 172.905 33.8503C172.063 34.789 170.916 35.2583 169.465 35.2583C168.025 35.2583 166.895 34.789 166.073 33.8503C165.252 32.9116 164.841 31.5463 164.841 29.7543C164.841 28.773 164.985 27.9143 165.273 27.1783C165.561 26.4316 165.94 25.8556 166.409 25.4503C167.359 24.629 168.463 24.2183 169.721 24.2183ZM166.841 29.6743C166.841 32.3196 167.759 33.6423 169.593 33.6423C170.575 33.6423 171.263 33.237 171.657 32.4263C172.02 31.7116 172.201 30.837 172.201 29.8023C172.201 28.8743 172.041 28.021 171.721 27.2423C171.54 26.8156 171.263 26.4796 170.889 26.2343C170.527 25.989 170.052 25.8663 169.465 25.8663C168.879 25.8663 168.372 26.0583 167.945 26.4423C167.529 26.8263 167.241 27.2903 167.081 27.8343C166.921 28.3783 166.841 28.9916 166.841 29.6743ZM176.49 33.1783V25.8183L175.578 25.7703V24.4103H179.45V25.7063L178.922 25.7543C178.613 25.7863 178.458 25.957 178.458 26.2663V33.6423L179.37 33.6903V35.0503H175.498V33.7543L176.026 33.7063C176.186 33.685 176.304 33.6423 176.378 33.5783C176.453 33.5036 176.49 33.3703 176.49 33.1783ZM180.564 35.0503V33.7543L181.14 33.7063C181.418 33.685 181.556 33.5356 181.556 33.2583V25.8183L180.644 25.7703V24.4103H183.524L188.052 31.7543H188.084V25.8183L187.028 25.7703V24.4103H190.932V25.7063L190.356 25.7543C190.1 25.7756 189.972 25.941 189.972 26.2503V35.0503H188.1L183.476 27.5943H183.444V33.6423L184.484 33.6903V35.0503H180.564ZM194.982 33.2583V25.9943H193.734C193.488 25.9943 193.366 26.1596 193.366 26.4903V27.2423L191.734 27.1303V24.4103H200.102V27.1303L198.47 27.2423V26.4903C198.47 26.309 198.443 26.181 198.39 26.1063C198.336 26.0316 198.208 25.9943 198.006 25.9943H196.918V33.6423L198.182 33.6903V35.0503H193.67V33.7543L194.518 33.7063C194.827 33.6743 194.982 33.525 194.982 33.2583Z" fill="black"/>
<defs>
<filter id="filter0_d_203_63" x="23.0496" y="17.3505" width="24.6187" height="31.7849" filterUnits="userSpaceOnUse" color-interpolation-filters="sRGB">
<feFlood flood-opacity="0" result="BackgroundImageFix"/>
<feColorMatrix in="SourceAlpha" type="matrix" values="0 0 0 0 0 0 0 0 0 0 0 0 0 0 0 0 0 0 127 0" result="hardAlpha"/>
<feOffset dy="5"/>
<feGaussianBlur stdDeviation="2.95"/>
<feComposite in2="hardAlpha" operator="out"/>
<feColorMatrix type="matrix" values="0 0 0 0 0 0 0 0 0 0 0 0 0 0 0 0 0 0 0.43 0"/>
<feBlend mode="darken" in2="BackgroundImageFix" result="effect1_dropShadow_203_63"/>
<feBlend mode="normal" in="SourceGraphic" in2="effect1_dropShadow_203_63" result="shape"/>
</filter>
<filter id="filter1_d_203_63" x="30.5395" y="19.7504" width="15.3122" height="15.6218" filterUnits="userSpaceOnUse" color-interpolation-filters="sRGB">
<feFlood flood-opacity="0" result="BackgroundImageFix"/>
<feColorMatrix in="SourceAlpha" type="matrix" values="0 0 0 0 0 0 0 0 0 0 0 0 0 0 0 0 0 0 127 0" result="hardAlpha"/>
<feOffset dy="5"/>
<feGaussianBlur stdDeviation="2.95"/>
<feComposite in2="hardAlpha" operator="out"/>
<feColorMatrix type="matrix" values="0 0 0 0 0 0 0 0 0 0 0 0 0 0 0 0 0 0 0.43 0"/>
<feBlend mode="darken" in2="BackgroundImageFix" result="effect1_dropShadow_203_63"/>
<feBlend mode="normal" in="SourceGraphic" in2="effect1_dropShadow_203_63" result="shape"/>
</filter>
<filter id="filter2_d_203_63" x="26.6831" y="32.8944" width="20.8841" height="20.3288" filterUnits="userSpaceOnUse" color-interpolation-filters="sRGB">
<feFlood flood-opacity="0" result="BackgroundImageFix"/>
<feColorMatrix in="SourceAlpha" type="matrix" values="0 0 0 0 0 0 0 0 0 0 0 0 0 0 0 0 0 0 127 0" result="hardAlpha"/>
<feOffset dy="5"/>
<feGaussianBlur stdDeviation="2.95"/>
<feComposite in2="hardAlpha" operator="out"/>
<feColorMatrix type="matrix" values="0 0 0 0 0 0 0 0 0 0 0 0 0 0 0 0 0 0 0.43 0"/>
<feBlend mode="darken" in2="BackgroundImageFix" result="effect1_dropShadow_203_63"/>
<feBlend mode="normal" in="SourceGraphic" in2="effect1_dropShadow_203_63" result="shape"/>
</filter>
<filter id="filter3_d_203_63" x="24.1598" y="29.9672" width="21.1364" height="20.9348" filterUnits="userSpaceOnUse" color-interpolation-filters="sRGB">
<feFlood flood-opacity="0" result="BackgroundImageFix"/>
<feColorMatrix in="SourceAlpha" type="matrix" values="0 0 0 0 0 0 0 0 0 0 0 0 0 0 0 0 0 0 127 0" result="hardAlpha"/>
<feOffset dy="5"/>
<feGaussianBlur stdDeviation="2.95"/>
<feComposite in2="hardAlpha" operator="out"/>
<feColorMatrix type="matrix" values="0 0 0 0 0 0 0 0 0 0 0 0 0 0 0 0 0 0 0.43 0"/>
<feBlend mode="darken" in2="BackgroundImageFix" result="effect1_dropShadow_203_63"/>
<feBlend mode="normal" in="SourceGraphic" in2="effect1_dropShadow_203_63" result="shape"/>
</filter>
<filter id="filter4_d_203_63" x="23.7561" y="28.2011" width="19.3197" height="22.4992" filterUnits="userSpaceOnUse" color-interpolation-filters="sRGB">
<feFlood flood-opacity="0" result="BackgroundImageFix"/>
<feColorMatrix in="SourceAlpha" type="matrix" values="0 0 0 0 0 0 0 0 0 0 0 0 0 0 0 0 0 0 127 0" result="hardAlpha"/>
<feOffset dy="5"/>
<feGaussianBlur stdDeviation="2.95"/>
<feComposite in2="hardAlpha" operator="out"/>
<feColorMatrix type="matrix" values="0 0 0 0 0 0 0 0 0 0 0 0 0 0 0 0 0 0 0.43 0"/>
<feBlend mode="darken" in2="BackgroundImageFix" result="effect1_dropShadow_203_63"/>
<feBlend mode="normal" in="SourceGraphic" in2="effect1_dropShadow_203_63" result="shape"/>
</filter>
<filter id="filter5_d_203_63" x="10.2309" y="17.3505" width="24.6187" height="31.7849" filterUnits="userSpaceOnUse" color-interpolation-filters="sRGB">
<feFlood flood-opacity="0" result="BackgroundImageFix"/>
<feColorMatrix in="SourceAlpha" type="matrix" values="0 0 0 0 0 0 0 0 0 0 0 0 0 0 0 0 0 0 127 0" result="hardAlpha"/>
<feOffset dy="5"/>
<feGaussianBlur stdDeviation="2.95"/>
<feComposite in2="hardAlpha" operator="out"/>
<feColorMatrix type="matrix" values="0 0 0 0 0 0 0 0 0 0 0 0 0 0 0 0 0 0 0.43 0"/>
<feBlend mode="darken" in2="BackgroundImageFix" result="effect1_dropShadow_203_63"/>
<feBlend mode="normal" in="SourceGraphic" in2="effect1_dropShadow_203_63" result="shape"/>
</filter>
<filter id="filter6_d_203_63" x="12.0475" y="19.7504" width="15.3122" height="15.6218" filterUnits="userSpaceOnUse" color-interpolation-filters="sRGB">
<feFlood flood-opacity="0" result="BackgroundImageFix"/>
<feColorMatrix in="SourceAlpha" type="matrix" values="0 0 0 0 0 0 0 0 0 0 0 0 0 0 0 0 0 0 127 0" result="hardAlpha"/>
<feOffset dy="5"/>
<feGaussianBlur stdDeviation="2.95"/>
<feComposite in2="hardAlpha" operator="out"/>
<feColorMatrix type="matrix" values="0 0 0 0 0 0 0 0 0 0 0 0 0 0 0 0 0 0 0.43 0"/>
<feBlend mode="darken" in2="BackgroundImageFix" result="effect1_dropShadow_203_63"/>
<feBlend mode="normal" in="SourceGraphic" in2="effect1_dropShadow_203_63" result="shape"/>
</filter>
<filter id="filter7_d_203_63" x="10.3318" y="32.8944" width="20.8841" height="20.3288" filterUnits="userSpaceOnUse" color-interpolation-filters="sRGB">
<feFlood flood-opacity="0" result="BackgroundImageFix"/>
<feColorMatrix in="SourceAlpha" type="matrix" values="0 0 0 0 0 0 0 0 0 0 0 0 0 0 0 0 0 0 127 0" result="hardAlpha"/>
<feOffset dy="5"/>
<feGaussianBlur stdDeviation="2.95"/>
<feComposite in2="hardAlpha" operator="out"/>
<feColorMatrix type="matrix" values="0 0 0 0 0 0 0 0 0 0 0 0 0 0 0 0 0 0 0.43 0"/>
<feBlend mode="darken" in2="BackgroundImageFix" result="effect1_dropShadow_203_63"/>
<feBlend mode="normal" in="SourceGraphic" in2="effect1_dropShadow_203_63" result="shape"/>
</filter>
<filter id="filter8_d_203_63" x="12.6028" y="29.9672" width="21.1364" height="20.9348" filterUnits="userSpaceOnUse" color-interpolation-filters="sRGB">
<feFlood flood-opacity="0" result="BackgroundImageFix"/>
<feColorMatrix in="SourceAlpha" type="matrix" values="0 0 0 0 0 0 0 0 0 0 0 0 0 0 0 0 0 0 127 0" result="hardAlpha"/>
<feOffset dy="5"/>
<feGaussianBlur stdDeviation="2.95"/>
<feComposite in2="hardAlpha" operator="out"/>
<feColorMatrix type="matrix" values="0 0 0 0 0 0 0 0 0 0 0 0 0 0 0 0 0 0 0.43 0"/>
<feBlend mode="darken" in2="BackgroundImageFix" result="effect1_dropShadow_203_63"/>
<feBlend mode="normal" in="SourceGraphic" in2="effect1_dropShadow_203_63" result="shape"/>
</filter>
<filter id="filter9_d_203_63" x="14.8234" y="28.2011" width="19.3197" height="22.4992" filterUnits="userSpaceOnUse" color-interpolation-filters="sRGB">
<feFlood flood-opacity="0" result="BackgroundImageFix"/>
<feColorMatrix in="SourceAlpha" type="matrix" values="0 0 0 0 0 0 0 0 0 0 0 0 0 0 0 0 0 0 127 0" result="hardAlpha"/>
<feOffset dy="5"/>
<feGaussianBlur stdDeviation="2.95"/>
<feComposite in2="hardAlpha" operator="out"/>
<feColorMatrix type="matrix" values="0 0 0 0 0 0 0 0 0 0 0 0 0 0 0 0 0 0 0.43 0"/>
<feBlend mode="darken" in2="BackgroundImageFix" result="effect1_dropShadow_203_63"/>
<feBlend mode="normal" in="SourceGraphic" in2="effect1_dropShadow_203_63" result="shape"/>
</filter>
</defs>
</svg>
