<svg width="46" height="46" viewBox="0 0 46 46" fill="none" xmlns="http://www.w3.org/2000/svg">
<circle cx="23" cy="23" r="23" fill="#DBF0FF"/>
<mask id="mask0_60_160" style="mask-type:alpha" maskUnits="userSpaceOnUse" x="11" y="11" width="24" height="24">
<rect x="11" y="11" width="24" height="24" fill="#D9D9D9"/>
</mask>
<g mask="url(#mask0_60_160)">
<path d="M17 31C16.1667 31 15.4583 30.7083 14.875 30.125C14.2917 29.5417 14 28.8333 14 28C14 27.1667 14.2917 26.4583 14.875 25.875C15.4583 25.2917 16.1667 25 17 25C17.8333 25 18.5417 25.2917 19.125 25.875C19.7083 26.4583 20 27.1667 20 28C20 28.8333 19.7083 29.5417 19.125 30.125C18.5417 30.7083 17.8333 31 17 31ZM29 31C28.1667 31 27.4583 30.7083 26.875 30.125C26.2917 29.5417 26 28.8333 26 28C26 27.1667 26.2917 26.4583 26.875 25.875C27.4583 25.2917 28.1667 25 29 25C29.8333 25 30.5417 25.2917 31.125 25.875C31.7083 26.4583 32 27.1667 32 28C32 28.8333 31.7083 29.5417 31.125 30.125C30.5417 30.7083 29.8333 31 29 31ZM23 21C22.1667 21 21.4583 20.7083 20.875 20.125C20.2917 19.5417 20 18.8333 20 18C20 17.1667 20.2917 16.4583 20.875 15.875C21.4583 15.2917 22.1667 15 23 15C23.8333 15 24.5417 15.2917 25.125 15.875C25.7083 16.4583 26 17.1667 26 18C26 18.8333 25.7083 19.5417 25.125 20.125C24.5417 20.7083 23.8333 21 23 21Z" fill="#2B43FF"/>
</g>
</svg>
