<svg width="46" height="46" viewBox="0 0 46 46" fill="none" xmlns="http://www.w3.org/2000/svg">
<circle cx="23" cy="23" r="23" fill="#DBF0FF"/>
<mask id="mask0_60_162" style="mask-type:alpha" maskUnits="userSpaceOnUse" x="11" y="11" width="24" height="24">
<rect x="11" y="11" width="24" height="24" fill="#D9D9D9"/>
</mask>
<g mask="url(#mask0_60_162)">
<path d="M16 32C15.7167 32 15.4792 31.9042 15.2875 31.7125C15.0958 31.5208 15 31.2833 15 31V30H14V26C14 25.7167 14.0958 25.4792 14.2875 25.2875C14.4792 25.0958 14.7167 25 15 25H16V18C16 16.9 16.3917 15.9583 17.175 15.175C17.9583 14.3917 18.9 14 20 14C21.1 14 22.0417 14.3917 22.825 15.175C23.6083 15.9583 24 16.9 24 18V28C24 28.55 24.1958 29.0208 24.5875 29.4125C24.9792 29.8042 25.45 30 26 30C26.55 30 27.0208 29.8042 27.4125 29.4125C27.8042 29.0208 28 28.55 28 28V21H27C26.7167 21 26.4792 20.9042 26.2875 20.7125C26.0958 20.5208 26 20.2833 26 20V16H27V15C27 14.7167 27.0958 14.4792 27.2875 14.2875C27.4792 14.0958 27.7167 14 28 14H30C30.2833 14 30.5208 14.0958 30.7125 14.2875C30.9042 14.4792 31 14.7167 31 15V16H32V20C32 20.2833 31.9042 20.5208 31.7125 20.7125C31.5208 20.9042 31.2833 21 31 21H30V28C30 29.1 29.6083 30.0417 28.825 30.825C28.0417 31.6083 27.1 32 26 32C24.9 32 23.9583 31.6083 23.175 30.825C22.3917 30.0417 22 29.1 22 28V18C22 17.45 21.8042 16.9792 21.4125 16.5875C21.0208 16.1958 20.55 16 20 16C19.45 16 18.9792 16.1958 18.5875 16.5875C18.1958 16.9792 18 17.45 18 18V25H19C19.2833 25 19.5208 25.0958 19.7125 25.2875C19.9042 25.4792 20 25.7167 20 26V30H19V31C19 31.2833 18.9042 31.5208 18.7125 31.7125C18.5208 31.9042 18.2833 32 18 32H16Z" fill="#2B43FF"/>
</g>
</svg>
